<svg id="Layer_1" data-name="Layer 1" xmlns="http://www.w3.org/2000/svg" viewBox="0 0 30.6 31.09"><defs><style>.cls-1{fill:#00c7fa;}.cls-2{fill:#00bd7f;}.cls-3{fill:#e8b500;}.cls-4{fill:#f33051;}</style></defs><title>logo</title><path class="cls-1" d="M14.72,1.49A4.42,4.42,0,0,0,10.3,5.91h4.42Z" transform="translate(-1.2 -1)"/><path class="cls-2" d="M21.12,7.3l.32-.21A3.65,3.65,0,0,0,23.11,4V1.53A.53.53,0,0,1,23.64,1h0a.53.53,0,0,1,.53.53L24.12,4a4.66,4.66,0,0,1-1.95,3.79c-.09.06-.07,0-.16.07Z" transform="translate(-1.2 -1)"/><rect class="cls-2" x="17.62" y="0.9" width="3.71" height="1.06" rx="0.36" ry="0.36"/><path class="cls-2" d="M19.44,8a4.66,4.66,0,0,1-2.21-4l-.05-2.49A.53.53,0,0,1,17.71,1h0a.53.53,0,0,1,.53.53V4a3.65,3.65,0,0,0,1.67,3.07l2,1.33a4.66,4.66,0,0,1,2.21,4l.05,2.49a.53.53,0,0,1-.53.53h0a.53.53,0,0,1-.53-.53V12.38a3.65,3.65,0,0,0-1.67-3.07Z" transform="translate(-1.2 -1)"/><path class="cls-2" d="M19.33,8.52c-.11.07-.12,0-.23.12a4.65,4.65,0,0,0-1.88,3.74l-.05,2.49a.53.53,0,0,0,.53.53h0a.53.53,0,0,0,.53-.53V12.38a3.65,3.65,0,0,1,1.67-3.07l.31-.21Z" transform="translate(-1.2 -1)"/><rect class="cls-2" x="17.62" y="2.81" width="3.71" height="1.06" rx="0.36" ry="0.36"/><rect class="cls-2" x="17.62" y="10.54" width="3.71" height="1.06" rx="0.36" ry="0.36"/><rect class="cls-2" x="17.62" y="12.45" width="3.71" height="1.06" rx="0.36" ry="0.36"/><path class="cls-3" d="M25.5,21.41l.21.32a3.65,3.65,0,0,0,3.07,1.67h2.49a.53.53,0,0,1,.53.53h0a.53.53,0,0,1-.53.53l-2.49-.05A4.66,4.66,0,0,1,25,22.46c-.06-.09,0-.07-.07-.16Z" transform="translate(-1.2 -1)"/><rect class="cls-3" x="28.52" y="20.43" width="3.71" height="1.06" rx="0.36" ry="0.36" transform="translate(50.13 -10.41) rotate(90)"/><path class="cls-3" d="M24.81,19.73a4.66,4.66,0,0,1,4-2.21l2.49-.05a.53.53,0,0,1,.53.53h0a.53.53,0,0,1-.53.53H28.78a3.65,3.65,0,0,0-3.07,1.67l-1.33,2a4.66,4.66,0,0,1-4,2.21l-2.49.05a.53.53,0,0,1-.53-.53h0a.53.53,0,0,1,.53-.53h2.49a3.65,3.65,0,0,0,3.07-1.67Z" transform="translate(-1.2 -1)"/><path class="cls-3" d="M24.28,19.62c-.07-.11,0-.12-.12-.23a4.65,4.65,0,0,0-3.74-1.88l-2.49-.05a.53.53,0,0,0-.53.53h0a.53.53,0,0,0,.53.53h2.49a3.65,3.65,0,0,1,3.07,1.67l.21.31Z" transform="translate(-1.2 -1)"/><rect class="cls-3" x="26.61" y="20.43" width="3.71" height="1.06" rx="0.36" ry="0.36" transform="translate(48.23 -8.5) rotate(90)"/><rect class="cls-3" x="18.87" y="20.43" width="3.71" height="1.06" rx="0.36" ry="0.36" transform="translate(40.49 -0.77) rotate(90)"/><rect class="cls-3" x="16.97" y="20.43" width="3.71" height="1.06" rx="0.36" ry="0.36" transform="translate(38.58 1.14) rotate(90)"/><path class="cls-4" d="M12.77,24l.32-.21a3.65,3.65,0,0,0,1.67-3.07V18.22a.53.53,0,0,1,.53-.53h0a.53.53,0,0,1,.53.53l-.05,2.49a4.66,4.66,0,0,1-1.95,3.79c-.09.06-.07,0-.16.07Z" transform="translate(-1.2 -1)"/><rect class="cls-4" x="9.27" y="17.59" width="3.71" height="1.06" rx="0.36" ry="0.36"/><path class="cls-4" d="M11.09,24.67a4.66,4.66,0,0,1-2.21-4l-.05-2.49a.53.53,0,0,1,.53-.53h0a.53.53,0,0,1,.53.53v2.49a3.65,3.65,0,0,0,1.67,3.07l2,1.33a4.66,4.66,0,0,1,2.21,4l.05,2.49a.53.53,0,0,1-.53.53h0a.53.53,0,0,1-.53-.53V29.07A3.65,3.65,0,0,0,13.09,26Z" transform="translate(-1.2 -1)"/><path class="cls-4" d="M11,25.21c-.11.07-.12,0-.23.12a4.65,4.65,0,0,0-1.88,3.74l-.05,2.49a.53.53,0,0,0,.53.53h0a.53.53,0,0,0,.53-.53V29.07A3.65,3.65,0,0,1,11.56,26l.31-.21Z" transform="translate(-1.2 -1)"/><rect class="cls-4" x="9.27" y="19.5" width="3.71" height="1.06" rx="0.36" ry="0.36"/><rect class="cls-4" x="9.27" y="27.23" width="3.71" height="1.06" rx="0.36" ry="0.36"/><rect class="cls-4" x="9.27" y="29.14" width="3.71" height="1.06" rx="0.36" ry="0.36"/><path class="cls-1" d="M9.3,12.08l.21.32a3.65,3.65,0,0,0,3.07,1.67h2.49a.53.53,0,0,1,.53.53h0a.53.53,0,0,1-.53.53l-2.49-.05a4.66,4.66,0,0,1-3.79-1.95c-.06-.09,0-.07-.07-.16Z" transform="translate(-1.2 -1)"/><rect class="cls-1" x="12.32" y="11.11" width="3.71" height="1.06" rx="0.36" ry="0.36" transform="translate(24.61 -3.53) rotate(90)"/><path class="cls-1" d="M8.62,10.4a4.66,4.66,0,0,1,4-2.21l2.49-.05a.53.53,0,0,1,.53.53h0a.53.53,0,0,1-.53.53H12.58a3.65,3.65,0,0,0-3.07,1.67l-1.33,2a4.66,4.66,0,0,1-4,2.21l-2.49.05a.53.53,0,0,1-.53-.53h0a.53.53,0,0,1,.53-.53H4.22A3.65,3.65,0,0,0,7.29,12.4Z" transform="translate(-1.2 -1)"/><path class="cls-1" d="M8.08,10.3c-.07-.11,0-.12-.12-.23A4.65,4.65,0,0,0,4.22,8.19L1.73,8.14a.53.53,0,0,0-.53.53h0a.53.53,0,0,0,.53.53H4.22a3.65,3.65,0,0,1,3.07,1.67l.21.31Z" transform="translate(-1.2 -1)"/><rect class="cls-1" x="10.41" y="11.11" width="3.71" height="1.06" rx="0.36" ry="0.36" transform="translate(22.7 -1.63) rotate(90)"/><rect class="cls-1" x="2.68" y="11.11" width="3.71" height="1.06" rx="0.36" ry="0.36" transform="translate(14.97 6.11) rotate(90)"/><rect class="cls-1" x="0.77" y="11.11" width="3.71" height="1.06" rx="0.36" ry="0.36" transform="translate(13.06 8.01) rotate(90)"/><path class="cls-2" d="M30.92,14.74a4.42,4.42,0,0,0-4.42-4.42v4.42Z" transform="translate(-1.2 -1)"/><path class="cls-3" d="M18.16,31.43A4.42,4.42,0,0,0,22.58,27H18.16Z" transform="translate(-1.2 -1)"/><path class="cls-4" d="M2.45,18.18A4.42,4.42,0,0,0,6.87,22.6V18.18Z" transform="translate(-1.2 -1)"/></svg>