<svg id="Layer_1" data-name="Layer 1" xmlns="http://www.w3.org/2000/svg" viewBox="0 0 27.03 26.63"><defs><style>.cls-1{fill:#00bd7f;}.cls-2{fill:#e8b500;}.cls-3{fill:#f33051;}.cls-4{fill:#00c7fa;}</style></defs><title>logoalt</title><path class="cls-1" d="M20.58,9.52l.29-.19a3.23,3.23,0,0,0,1.48-2.71V4.42A.47.47,0,0,1,22.81,4h0a.47.47,0,0,1,.47.47l0,2.2A4.11,4.11,0,0,1,21.51,10c-.08.05-.06,0-.14.06Z" transform="translate(-2.99 -3.96)"/><rect class="cls-1" x="15.56" y="0.8" width="3.28" height="0.94" rx="0.42" ry="0.42"/><path class="cls-1" d="M19.1,10.13a4.12,4.12,0,0,1-2-3.5l0-2.2A.47.47,0,0,1,17.56,4h0a.47.47,0,0,1,.47.47v2.2a3.23,3.23,0,0,0,1.48,2.71l1.77,1.17a4.12,4.12,0,0,1,2,3.5l0,2.2a.47.47,0,0,1-.47.47h0a.47.47,0,0,1-.47-.47V14a3.23,3.23,0,0,0-1.48-2.71Z" transform="translate(-2.99 -3.96)"/><path class="cls-1" d="M19,10.6c-.1.06-.11,0-.2.11A4.11,4.11,0,0,0,17.14,14l0,2.2a.47.47,0,0,0,.47.47h0a.47.47,0,0,0,.47-.47V14a3.23,3.23,0,0,1,1.48-2.71l.28-.18Z" transform="translate(-2.99 -3.96)"/><rect class="cls-1" x="15.56" y="2.48" width="3.28" height="0.94" rx="0.42" ry="0.42"/><rect class="cls-1" x="15.56" y="9.31" width="3.28" height="0.94" rx="0.42" ry="0.42"/><rect class="cls-1" x="15.56" y="11" width="3.28" height="0.94" rx="0.42" ry="0.42"/><path class="cls-2" d="M24.45,21.59l.19.29a3.23,3.23,0,0,0,2.71,1.48h2.2a.47.47,0,0,1,.47.47h0a.47.47,0,0,1-.47.47l-2.2,0A4.11,4.11,0,0,1,24,22.52c-.05-.08,0-.06-.06-.14Z" transform="translate(-2.99 -3.96)"/><rect class="cls-2" x="27.11" y="20.73" width="3.28" height="0.94" rx="0.42" ry="0.42" transform="translate(46.96 -11.51) rotate(90)"/><path class="cls-2" d="M23.84,20.1a4.12,4.12,0,0,1,3.5-2l2.2,0a.47.47,0,0,1,.47.47h0a.47.47,0,0,1-.47.47h-2.2a3.23,3.23,0,0,0-2.71,1.48l-1.17,1.77a4.12,4.12,0,0,1-3.5,2l-2.2,0a.47.47,0,0,1-.47-.47h0a.47.47,0,0,1,.47-.47H20a3.23,3.23,0,0,0,2.71-1.48Z" transform="translate(-2.99 -3.96)"/><path class="cls-2" d="M23.37,20c-.06-.1,0-.11-.11-.2A4.11,4.11,0,0,0,20,18.15l-2.2,0a.47.47,0,0,0-.47.47h0a.47.47,0,0,0,.47.47H20a3.23,3.23,0,0,1,2.71,1.48l.18.28Z" transform="translate(-2.99 -3.96)"/><rect class="cls-2" x="25.43" y="20.73" width="3.28" height="0.94" rx="0.42" ry="0.42" transform="translate(45.27 -9.83) rotate(90)"/><rect class="cls-2" x="18.6" y="20.73" width="3.28" height="0.94" rx="0.42" ry="0.42" transform="translate(38.44 -3) rotate(90)"/><rect class="cls-2" x="16.91" y="20.73" width="3.28" height="0.94" rx="0.42" ry="0.42" transform="translate(36.76 -1.31) rotate(90)"/><path class="cls-3" d="M13.21,23.44l.29-.19A3.23,3.23,0,0,0,15,20.54v-2.2a.47.47,0,0,1,.47-.47h0a.47.47,0,0,1,.47.47l0,2.2a4.11,4.11,0,0,1-1.72,3.35c-.08.05-.06,0-.14.06Z" transform="translate(-2.99 -3.96)"/><rect class="cls-3" x="8.19" y="14.71" width="3.28" height="0.94" rx="0.42" ry="0.42"/><path class="cls-3" d="M11.73,24a4.12,4.12,0,0,1-2-3.5l0-2.2a.47.47,0,0,1,.47-.47h0a.47.47,0,0,1,.47.47v2.2a3.23,3.23,0,0,0,1.48,2.71l1.77,1.17a4.12,4.12,0,0,1,2,3.5l0,2.2a.47.47,0,0,1-.47.47h0a.47.47,0,0,1-.47-.47v-2.2a3.23,3.23,0,0,0-1.48-2.71Z" transform="translate(-2.99 -3.96)"/><path class="cls-3" d="M11.63,24.51c-.1.06-.11,0-.2.11a4.11,4.11,0,0,0-1.66,3.3l0,2.2a.47.47,0,0,0,.47.47h0a.47.47,0,0,0,.47-.47v-2.2a3.23,3.23,0,0,1,1.48-2.71l.28-.18Z" transform="translate(-2.99 -3.96)"/><rect class="cls-3" x="8.19" y="16.39" width="3.28" height="0.94" rx="0.42" ry="0.42"/><rect class="cls-3" x="8.19" y="23.22" width="3.28" height="0.94" rx="0.42" ry="0.42"/><rect class="cls-3" x="8.19" y="24.91" width="3.28" height="0.94" rx="0.42" ry="0.42"/><path class="cls-4" d="M10.14,13.73l.19.29A3.23,3.23,0,0,0,13,15.49h2.2a.47.47,0,0,1,.47.47h0a.47.47,0,0,1-.47.47l-2.2,0a4.11,4.11,0,0,1-3.35-1.72c-.05-.08,0-.06-.06-.14Z" transform="translate(-2.99 -3.96)"/><rect class="cls-4" x="12.81" y="12.87" width="3.28" height="0.94" rx="0.42" ry="0.42" transform="translate(24.8 -5.06) rotate(90)"/><path class="cls-4" d="M9.54,12.25a4.12,4.12,0,0,1,3.5-2l2.2,0a.47.47,0,0,1,.47.47h0a.47.47,0,0,1-.47.47H13a3.23,3.23,0,0,0-2.71,1.48L9.16,14.43a4.12,4.12,0,0,1-3.5,2l-2.2,0A.47.47,0,0,1,3,16H3a.47.47,0,0,1,.47-.47h2.2A3.23,3.23,0,0,0,8.36,14Z" transform="translate(-2.99 -3.96)"/><path class="cls-4" d="M9.06,12.16C9,12.06,9,12.05,9,12a4.11,4.11,0,0,0-3.3-1.66l-2.2,0a.47.47,0,0,0-.47.47H3a.47.47,0,0,0,.47.47h2.2a3.23,3.23,0,0,1,2.71,1.48l.18.28Z" transform="translate(-2.99 -3.96)"/><rect class="cls-4" x="11.12" y="12.87" width="3.28" height="0.94" rx="0.42" ry="0.42" transform="translate(23.11 -3.37) rotate(90)"/><rect class="cls-4" x="4.29" y="12.87" width="3.28" height="0.94" rx="0.42" ry="0.42" transform="translate(16.28 3.46) rotate(90)"/><rect class="cls-4" x="2.6" y="12.87" width="3.28" height="0.94" rx="0.42" ry="0.42" transform="translate(14.6 5.14) rotate(90)"/><path class="cls-1" d="M29.24,16.58a3.9,3.9,0,0,0-3.9-3.9v3.9Z" transform="translate(-2.99 -3.96)"/><path class="cls-2" d="M18,30.07a3.9,3.9,0,0,0,3.9-3.9H18Z" transform="translate(-2.99 -3.96)"/><path class="cls-3" d="M4.09,17.86A3.9,3.9,0,0,0,8,21.76v-3.9Z" transform="translate(-2.99 -3.96)"/><path class="cls-4" d="M15.36,4.86a3.9,3.9,0,0,0-3.9,3.9h3.9Z" transform="translate(-2.99 -3.96)"/></svg>