<svg id="Layer_1" data-name="Layer 1" xmlns="http://www.w3.org/2000/svg" viewBox="0 0 31 31"><defs><style>.cls-1{fill:#521753;}.cls-2{fill:#00bd7f;}.cls-3{fill:#e8b500;}.cls-4{fill:#f33051;}.cls-5{fill:#00c7fa;}</style></defs><title>logoalt-dark</title><rect class="cls-1" width="31" height="31" rx="2" ry="2"/><path class="cls-2" d="M20.58,9.52l.29-.19a3.23,3.23,0,0,0,1.48-2.71V4.42A.47.47,0,0,1,22.81,4h0a.47.47,0,0,1,.47.47l0,2.2A4.11,4.11,0,0,1,21.51,10c-.08.05-.06,0-.14.06Z" transform="translate(-1 -2)"/><rect class="cls-2" x="17.55" y="2.75" width="3.28" height="0.94" rx="0.42" ry="0.42"/><path class="cls-2" d="M19.1,10.13a4.12,4.12,0,0,1-2-3.5l0-2.2A.47.47,0,0,1,17.56,4h0a.47.47,0,0,1,.47.47v2.2a3.23,3.23,0,0,0,1.48,2.71l1.77,1.17a4.12,4.12,0,0,1,2,3.5l0,2.2a.47.47,0,0,1-.47.47h0a.47.47,0,0,1-.47-.47V14a3.23,3.23,0,0,0-1.48-2.71Z" transform="translate(-1 -2)"/><path class="cls-2" d="M19,10.6c-.1.06-.11,0-.2.11A4.11,4.11,0,0,0,17.14,14l0,2.2a.47.47,0,0,0,.47.47h0a.47.47,0,0,0,.47-.47V14a3.23,3.23,0,0,1,1.48-2.71l.28-.18Z" transform="translate(-1 -2)"/><rect class="cls-2" x="17.55" y="4.44" width="3.28" height="0.94" rx="0.42" ry="0.42"/><rect class="cls-2" x="17.55" y="11.27" width="3.28" height="0.94" rx="0.42" ry="0.42"/><rect class="cls-2" x="17.55" y="12.95" width="3.28" height="0.94" rx="0.42" ry="0.42"/><path class="cls-3" d="M24.45,21.59l.19.29a3.23,3.23,0,0,0,2.71,1.48h2.2a.47.47,0,0,1,.47.47h0a.47.47,0,0,1-.47.47l-2.2,0A4.11,4.11,0,0,1,24,22.52c-.05-.08,0-.06-.06-.14Z" transform="translate(-1 -2)"/><rect class="cls-3" x="27.11" y="20.73" width="3.28" height="0.94" rx="0.42" ry="0.42" transform="translate(48.94 -9.56) rotate(90)"/><path class="cls-3" d="M23.84,20.1a4.12,4.12,0,0,1,3.5-2l2.2,0a.47.47,0,0,1,.47.47h0a.47.47,0,0,1-.47.47h-2.2a3.23,3.23,0,0,0-2.71,1.48l-1.17,1.77a4.12,4.12,0,0,1-3.5,2l-2.2,0a.47.47,0,0,1-.47-.47h0a.47.47,0,0,1,.47-.47H20a3.23,3.23,0,0,0,2.71-1.48Z" transform="translate(-1 -2)"/><path class="cls-3" d="M23.37,20c-.06-.1,0-.11-.11-.2A4.11,4.11,0,0,0,20,18.15l-2.2,0a.47.47,0,0,0-.47.47h0a.47.47,0,0,0,.47.47H20a3.23,3.23,0,0,1,2.71,1.48l.18.28Z" transform="translate(-1 -2)"/><rect class="cls-3" x="25.43" y="20.73" width="3.28" height="0.94" rx="0.42" ry="0.42" transform="translate(47.26 -7.87) rotate(90)"/><rect class="cls-3" x="18.6" y="20.73" width="3.28" height="0.94" rx="0.42" ry="0.42" transform="translate(40.43 -1.04) rotate(90)"/><rect class="cls-3" x="16.91" y="20.73" width="3.28" height="0.94" rx="0.42" ry="0.42" transform="translate(38.74 0.64) rotate(90)"/><path class="cls-4" d="M13.21,23.44l.29-.19A3.23,3.23,0,0,0,15,20.54v-2.2a.47.47,0,0,1,.47-.47h0a.47.47,0,0,1,.47.47l0,2.2a4.11,4.11,0,0,1-1.72,3.35c-.08.05-.06,0-.14.06Z" transform="translate(-1 -2)"/><rect class="cls-4" x="10.18" y="16.66" width="3.28" height="0.94" rx="0.42" ry="0.42"/><path class="cls-4" d="M11.73,24a4.12,4.12,0,0,1-2-3.5l0-2.2a.47.47,0,0,1,.47-.47h0a.47.47,0,0,1,.47.47v2.2a3.23,3.23,0,0,0,1.48,2.71l1.77,1.17a4.12,4.12,0,0,1,2,3.5l0,2.2a.47.47,0,0,1-.47.47h0a.47.47,0,0,1-.47-.47v-2.2a3.23,3.23,0,0,0-1.48-2.71Z" transform="translate(-1 -2)"/><path class="cls-4" d="M11.63,24.51c-.1.06-.11,0-.2.11a4.11,4.11,0,0,0-1.66,3.3l0,2.2a.47.47,0,0,0,.47.47h0a.47.47,0,0,0,.47-.47v-2.2a3.23,3.23,0,0,1,1.48-2.71l.28-.18Z" transform="translate(-1 -2)"/><rect class="cls-4" x="10.18" y="18.35" width="3.28" height="0.94" rx="0.42" ry="0.42"/><rect class="cls-4" x="10.18" y="25.18" width="3.28" height="0.94" rx="0.42" ry="0.42"/><rect class="cls-4" x="10.18" y="26.86" width="3.28" height="0.94" rx="0.42" ry="0.42"/><path class="cls-5" d="M10.14,13.73l.19.29A3.23,3.23,0,0,0,13,15.49h2.2a.47.47,0,0,1,.47.47h0a.47.47,0,0,1-.47.47l-2.2,0a4.11,4.11,0,0,1-3.35-1.72c-.05-.08,0-.06-.06-.14Z" transform="translate(-1 -2)"/><rect class="cls-5" x="12.81" y="12.87" width="3.28" height="0.94" rx="0.42" ry="0.42" transform="translate(26.78 -3.1) rotate(90)"/><path class="cls-5" d="M9.54,12.25a4.12,4.12,0,0,1,3.5-2l2.2,0a.47.47,0,0,1,.47.47h0a.47.47,0,0,1-.47.47H13a3.23,3.23,0,0,0-2.71,1.48L9.16,14.43a4.12,4.12,0,0,1-3.5,2l-2.2,0A.47.47,0,0,1,3,16H3a.47.47,0,0,1,.47-.47h2.2A3.23,3.23,0,0,0,8.36,14Z" transform="translate(-1 -2)"/><path class="cls-5" d="M9.06,12.16C9,12.06,9,12.05,9,12a4.11,4.11,0,0,0-3.3-1.66l-2.2,0a.47.47,0,0,0-.47.47H3a.47.47,0,0,0,.47.47h2.2a3.23,3.23,0,0,1,2.71,1.48l.18.28Z" transform="translate(-1 -2)"/><rect class="cls-5" x="11.12" y="12.87" width="3.28" height="0.94" rx="0.42" ry="0.42" transform="translate(25.1 -1.42) rotate(90)"/><rect class="cls-5" x="4.29" y="12.87" width="3.28" height="0.94" rx="0.42" ry="0.42" transform="translate(18.27 5.41) rotate(90)"/><rect class="cls-5" x="2.6" y="12.87" width="3.28" height="0.94" rx="0.42" ry="0.42" transform="translate(16.58 7.1) rotate(90)"/><path class="cls-2" d="M29.24,16.58a3.9,3.9,0,0,0-3.9-3.9v3.9Z" transform="translate(-1 -2)"/><path class="cls-3" d="M18,30.07a3.9,3.9,0,0,0,3.9-3.9H18Z" transform="translate(-1 -2)"/><path class="cls-4" d="M4.09,17.86A3.9,3.9,0,0,0,8,21.76v-3.9Z" transform="translate(-1 -2)"/><path class="cls-5" d="M15.36,4.86a3.9,3.9,0,0,0-3.9,3.9h3.9Z" transform="translate(-1 -2)"/></svg>